<svg width="18" height="22" viewBox="0 0 18 22" fill="none" xmlns="http://www.w3.org/2000/svg">
<path fill-rule="evenodd" clip-rule="evenodd" d="M8.4303 0.567705C9.7687 0.592512 10.8854 1.63845 10.9924 2.9359L11.0003 3.09276L11.0238 4.33947L11.1151 4.38337C13.0348 5.34639 14.357 7.21095 14.5715 9.30885L14.5908 9.54287L14.6015 9.80368C14.6459 12.1497 14.982 14.2434 15.7169 15.7212C16.0663 16.4265 16.409 16.8106 16.6215 16.9496C16.9692 17.112 17.1538 17.4813 17.0801 17.8545C17.0112 18.1992 16.7114 18.4463 16.3587 18.4791L16.2613 18.4826L12.0026 18.4044L11.9935 18.5284C11.8363 20.0511 10.6104 21.2362 9.05744 21.3667L8.88357 21.3769L8.70724 21.3781C7.06076 21.3479 5.66544 20.1529 5.35886 18.605L5.32932 18.4316L5.31267 18.2816L1.03935 18.2049C0.724689 18.1986 0.435514 18.0239 0.289845 17.7608L0.242176 17.6581L0.21192 17.5594C0.124278 17.1826 0.298871 16.8126 0.620679 16.6741C0.851979 16.529 1.17635 16.1619 1.49897 15.4726C2.17745 14.023 2.43514 11.9423 2.39237 9.59591C2.34875 7.29545 3.65028 5.25244 5.6884 4.28523L5.76871 4.24843L5.74509 3.01176C5.72185 1.74094 6.67722 0.706569 7.92613 0.577317L8.08373 0.565923L8.23801 0.564132L8.4303 0.567705ZM8.40726 5.33835C5.95413 5.29279 3.99818 7.20998 4.04244 9.61139C4.0963 12.5003 3.71837 14.7742 2.91264 16.3721L2.86176 16.4719L2.78626 16.6089L14.4607 16.8228L14.3313 16.5919C13.5099 15.0461 13.0509 12.9041 12.9607 10.2188L12.9496 9.79128C12.9046 7.38212 10.8667 5.38285 8.40726 5.33835ZM10.3408 18.3751L6.97631 18.3129L6.985 18.3645C7.1432 19.0935 7.77964 19.6661 8.54636 19.7438L8.6842 19.7517L8.81735 19.7495C9.58787 19.7083 10.202 19.1599 10.3321 18.4397L10.3408 18.3751ZM8.5473 2.20415L8.4438 2.19636L8.25311 2.19249C7.80469 2.18416 7.4431 2.50673 7.40112 2.9285L7.39721 3.02749L7.411 3.77044L7.46252 3.7629C7.66556 3.7357 7.87122 3.71873 8.07895 3.71212L8.39203 3.70998C8.70524 3.71562 9.01617 3.74464 9.32305 3.79642L9.36138 3.80296L9.34728 3.07834C9.34013 2.67116 9.04108 2.3207 8.64754 2.22315L8.5473 2.20415Z" fill="white"/>
</svg>
